<?xml version="1.0" standalone="no"?>
<!DOCTYPE svg PUBLIC "-//W3C//DTD SVG 20010904//EN"
 "http://www.w3.org/TR/2001/REC-SVG-20010904/DTD/svg10.dtd">
<svg version="1.0" xmlns="http://www.w3.org/2000/svg"
 width="512.000000pt" height="512.000000pt" viewBox="0 0 512.000000 512.000000"
 preserveAspectRatio="xMidYMid meet">

<g transform="translate(0.000000,512.000000) scale(0.100000,-0.100000)"
fill="#000000" stroke="none">
<path d="M0 4070 l0 -1051 28 21 c27 20 38 21 331 18 l303 -3 19 -24 c25 -30
24 -62 -2 -95 l-20 -26 -310 0 c-296 0 -310 1 -329 20 l-20 20 0 -1475 0
-1475 2560 0 2560 0 0 2560 0 2560 -2560 0 -2560 0 0 -1050z m3758 -174 c15
-8 38 -26 52 -41 l25 -27 3 -314 3 -314 321 0 c306 0 324 -1 365 -21 23 -11
52 -34 64 -50 51 -72 481 -859 497 -909 14 -46 17 -99 17 -330 0 -368 -1 -371
-179 -380 l-98 -5 -22 -61 c-12 -33 -32 -76 -44 -96 -35 -57 -118 -127 -190
-161 -63 -30 -74 -32 -177 -32 -103 0 -114 2 -176 31 -113 54 -192 141 -235
259 l-22 60 -723 0 -723 0 -21 -60 c-40 -116 -119 -203 -235 -259 -61 -29 -72
-31 -175 -31 -103 0 -114 2 -177 32 -72 34 -155 104 -190 161 -12 20 -32 63
-44 96 l-22 61 -364 3 c-356 2 -366 3 -384 23 -18 19 -19 43 -22 305 l-3 284
-319 0 c-317 0 -319 0 -344 23 -36 32 -39 74 -6 107 20 20 33 20 557 20 l537
0 23 -22 c28 -26 30 -67 4 -99 -18 -23 -27 -24 -158 -29 l-138 -5 -3 -227 -2
-228 314 0 314 0 7 33 c13 58 62 141 115 195 97 96 222 137 368 120 157 -18
305 -146 352 -305 l13 -43 589 0 588 0 0 1050 0 1050 -1327 -2 -1328 -3 0
-125 0 -125 260 -5 c143 -3 261 -7 262 -8 1 -1 10 -16 19 -33 13 -26 13 -36 3
-60 -6 -17 -20 -34 -30 -39 -11 -6 -220 -10 -527 -10 -500 0 -510 0 -536 21
-36 28 -36 80 0 108 25 20 40 21 209 21 l183 0 4 153 c3 172 14 204 78 238 33
18 87 19 1403 19 1155 0 1372 -2 1395 -14z m-2748 -746 c19 -19 20 -33 20
-265 l0 -245 524 0 c339 0 534 -4 552 -10 80 -31 67 -130 -18 -145 -18 -3
-352 -5 -741 -3 l-709 3 -24 28 c-30 35 -30 59 0 94 24 27 27 28 145 31 l120
4 3 245 c3 244 3 245 27 264 30 25 76 24 101 -1z"/>
<path d="M3847 3043 c-4 -3 -7 -316 -7 -695 l0 -688 63 0 64 0 13 43 c20 70
50 118 107 178 223 234 623 141 720 -168 l17 -53 63 0 64 0 -3 263 -3 262 -29
55 c-66 127 -430 776 -444 793 -14 15 -42 17 -317 17 -166 0 -305 -3 -308 -7z"/>
<path d="M1965 1837 c-28 -13 -70 -46 -93 -72 -165 -188 -17 -483 232 -463
152 13 260 128 260 277 0 107 -51 195 -142 248 -36 22 -61 27 -126 30 -70 4
-88 1 -131 -20z"/>
<path d="M4284 1841 c-148 -67 -211 -240 -140 -384 31 -65 69 -100 144 -135
44 -20 65 -23 120 -20 159 9 267 124 266 283 -1 113 -62 208 -164 254 -60 27
-169 28 -226 2z"/>
</g>
</svg>
