<?xml version="1.0" standalone="no"?>
<!DOCTYPE svg PUBLIC "-//W3C//DTD SVG 20010904//EN"
 "http://www.w3.org/TR/2001/REC-SVG-20010904/DTD/svg10.dtd">
<svg version="1.0" xmlns="http://www.w3.org/2000/svg"
 width="512.000000pt" height="512.000000pt" viewBox="0 0 512.000000 512.000000"
 preserveAspectRatio="xMidYMid meet">

<g transform="translate(0.000000,512.000000) scale(0.100000,-0.100000)"
fill="#000000" stroke="none">
<path d="M0 4070 l0 -1050 20 20 c19 19 33 20 325 20 l306 0 24 -25 c31 -30
32 -73 5 -103 -21 -22 -25 -22 -332 -22 -276 0 -314 2 -330 17 -17 16 -18 -30
-18 -1455 l0 -1472 2560 0 2560 0 0 2560 0 2560 -2560 0 -2560 0 0 -1050z
m3767 -176 c67 -33 67 -34 73 -379 l5 -310 330 -5 c365 -6 369 -6 418 -72 41
-56 469 -830 490 -888 18 -49 21 -84 24 -340 4 -259 2 -288 -14 -319 -32 -62
-61 -75 -173 -79 -85 -4 -100 -7 -100 -21 0 -9 -15 -48 -34 -87 -42 -89 -117
-164 -205 -206 -57 -28 -80 -33 -163 -36 -104 -5 -165 9 -243 54 -87 50 -181
173 -200 262 l-7 32 -727 0 -728 0 -13 -42 c-20 -69 -49 -118 -102 -175 -96
-101 -190 -137 -336 -131 -84 3 -106 8 -165 37 -111 53 -212 175 -233 280 l-6
30 -365 3 -365 3 -24 28 -24 28 0 280 0 279 -324 0 c-294 0 -326 2 -345 18
-33 27 -37 74 -9 105 l23 27 375 0 c731 2 707 3 730 -20 30 -30 27 -83 -6
-109 -24 -19 -40 -21 -155 -21 l-129 0 0 -230 0 -230 308 0 308 0 13 50 c50
194 275 335 479 302 86 -15 180 -62 241 -121 50 -49 103 -139 116 -199 l7 -32
589 0 589 0 0 1050 0 1050 -1325 0 -1325 0 0 -130 0 -130 250 0 251 0 24 -25
c30 -29 32 -64 6 -96 l-19 -24 -299 -5 c-164 -3 -403 -3 -531 0 -217 5 -235 6
-248 24 -21 29 -17 76 8 103 21 22 26 23 210 23 l188 0 0 148 c0 166 10 200
69 239 l34 23 1374 0 c1257 0 1378 -1 1410 -16z m-2751 -745 c17 -19 19 -42
22 -265 l3 -243 540 -3 541 -3 19 -24 c24 -30 24 -72 0 -102 l-19 -24 -731 -3
c-642 -2 -735 -1 -761 13 -52 27 -52 106 0 132 16 8 67 13 138 13 l112 0 0
239 c0 226 1 240 21 265 27 34 86 37 115 5z"/>
<path d="M3850 2355 l0 -695 58 0 57 0 18 56 c49 156 177 264 347 295 116 20
249 -17 348 -98 56 -46 116 -138 133 -203 l13 -50 63 0 63 0 0 243 c-1 206 -3
249 -18 292 -16 44 -438 809 -464 843 -8 9 -83 12 -314 12 l-304 0 0 -695z"/>
<path d="M1984 1844 c-182 -65 -238 -320 -100 -457 140 -140 369 -101 452 78
27 56 31 156 11 212 -40 108 -148 184 -261 182 -34 0 -80 -7 -102 -15z"/>
<path d="M4271 1829 c-66 -33 -121 -93 -142 -156 -15 -47 -7 -170 15 -215 43
-88 154 -158 251 -158 102 0 208 68 254 164 34 69 31 172 -7 246 -69 136 -232
189 -371 119z"/>
</g>
</svg>
