<?xml version="1.0" standalone="no"?>
<!DOCTYPE svg PUBLIC "-//W3C//DTD SVG 20010904//EN"
 "http://www.w3.org/TR/2001/REC-SVG-20010904/DTD/svg10.dtd">
<svg version="1.0" xmlns="http://www.w3.org/2000/svg"
 width="38.000000pt" height="53.000000pt" viewBox="0 0 38.000000 53.000000"
 preserveAspectRatio="xMidYMid meet">

<g transform="translate(0.000000,53.000000) scale(0.100000,-0.100000)"
fill="#000000" stroke="none">
<path d="M42 468 c-16 -16 -15 -120 2 -143 10 -13 11 -28 4 -51 -16 -61 29
-199 76 -230 22 -14 32 -15 52 -6 18 9 29 9 44 0 30 -19 66 7 98 71 22 45 27
71 28 131 0 41 6 85 12 97 16 28 15 116 0 131 -23 23 -56 13 -89 -28 -27 -34
-38 -40 -70 -40 -31 0 -43 7 -72 40 -34 40 -63 50 -85 28z m64 -44 l27 -35
-29 -24 c-16 -14 -32 -24 -36 -25 -5 0 -8 27 -8 60 0 33 4 60 9 60 6 0 22 -16
37 -36z m234 -24 c0 -27 -3 -51 -7 -53 -5 -3 -23 5 -41 18 l-33 23 31 36 c18
20 36 33 41 30 5 -3 9 -27 9 -54z m-150 -103 c0 -43 -5 -78 -12 -85 -7 -7 -34
-12 -60 -12 l-48 0 0 39 c0 44 33 99 70 118 46 23 50 18 50 -60z m69 59 c39
-21 64 -63 64 -111 1 -83 -46 -185 -84 -185 -18 0 -19 3 -9 14 6 8 10 25 8 38
-2 19 -10 24 -42 26 l-39 3 6 -40 c9 -68 -35 -47 -68 32 l-15 37 43 0 c23 0
53 7 65 16 20 14 22 24 22 100 0 90 3 93 49 70z m-49 -252 c0 -9 -5 -14 -12
-12 -18 6 -21 28 -4 28 9 0 16 -7 16 -16z"/>
<path d="M130 260 c0 -5 4 -10 9 -10 6 0 13 5 16 10 3 6 -1 10 -9 10 -9 0 -16
-4 -16 -10z"/>
<path d="M240 255 c0 -9 6 -12 15 -9 8 4 15 10 15 15 0 5 -7 9 -15 9 -8 0 -15
-7 -15 -15z"/>
</g>
</svg>
